<svg xmlns="http://www.w3.org/2000/svg" xmlns:xlink="http://www.w3.org/1999/xlink" width="334.96" height="66.029" viewBox="0 0 334.96 66.029">
  <defs>
    <filter id="Path_7" x="0" y="15.104" width="50.925" height="50.925" filterUnits="userSpaceOnUse">
      <feOffset dy="3" input="SourceAlpha"/>
      <feGaussianBlur stdDeviation="3" result="blur"/>
      <feFlood flood-opacity="0.161"/>
      <feComposite operator="in" in2="blur"/>
      <feComposite in="SourceGraphic"/>
    </filter>
    <filter id="Path_8" x="0" y="0" width="50.925" height="50.925" filterUnits="userSpaceOnUse">
      <feOffset dy="3" input="SourceAlpha"/>
      <feGaussianBlur stdDeviation="3" result="blur-2"/>
      <feFlood flood-opacity="0.161"/>
      <feComposite operator="in" in2="blur-2"/>
      <feComposite in="SourceGraphic"/>
    </filter>
  </defs>
  <path id="Path_6" data-name="Path 6" d="M14.3-30.888a17.966,17.966,0,0,1,8.536,1.936,13.831,13.831,0,0,1,5.654,5.434,15.966,15.966,0,0,1,2,8.074,16,16,0,0,1-2,8.052,13.758,13.758,0,0,1-5.676,5.456A18,18,0,0,1,14.3,0H2.728V-30.888ZM13.816-6.512A9.081,9.081,0,0,0,20.46-8.844a8.83,8.83,0,0,0,2.376-6.6,8.982,8.982,0,0,0-2.376-6.644,8.982,8.982,0,0,0-6.644-2.376H10.252V-6.512ZM53.944-5.456H42.416L40.568,0H32.692L43.868-30.888H52.58L63.756,0H55.792Zm-1.936-5.808L48.18-22.572,44.4-11.264ZM89.364-30.888v6.028H81.18V0H73.656V-24.86H65.472v-6.028Zm11.308,6.028v6.248h10.076V-12.8H100.672v6.776h11.4V0H93.148V-30.888h18.92v6.028Zm51.26-6.028V0h-7.524V-18.524L137.5,0h-6.072l-6.952-18.568V0h-7.524V-30.888h8.888L134.508-9.5l8.58-21.384Zm24.64,25.432H165.044L163.2,0H155.32L166.5-30.888h8.712L186.384,0H178.42Zm-1.936-5.808-3.828-11.308-3.784,11.308Zm37.356-19.624v6.028h-8.184V0h-7.524V-24.86H188.1v-6.028Zm2.508,15.4a16.6,16.6,0,0,1,1.98-8.162A14.151,14.151,0,0,1,222-29.238a16.032,16.032,0,0,1,8.03-2,15.365,15.365,0,0,1,9.416,2.9,13.946,13.946,0,0,1,5.236,7.92h-8.272a6.681,6.681,0,0,0-2.618-2.948,7.361,7.361,0,0,0-3.85-1.012,7.186,7.186,0,0,0-5.632,2.42,9.364,9.364,0,0,0-2.156,6.468,9.364,9.364,0,0,0,2.156,6.468,7.186,7.186,0,0,0,5.632,2.42,7.361,7.361,0,0,0,3.85-1.012,6.681,6.681,0,0,0,2.618-2.948h8.272a13.844,13.844,0,0,1-5.236,7.9A15.446,15.446,0,0,1,230.032.22a16.032,16.032,0,0,1-8.03-2,14.19,14.19,0,0,1-5.522-5.566A16.478,16.478,0,0,1,214.5-15.488Zm61.556-15.4V0h-7.524V-12.716h-11.7V0H249.3V-30.888h7.524v12.1h11.7v-12.1Z" transform="translate(58.904 45.029)" fill="#fff" opacity="0.7"/>
  <g transform="matrix(1, 0, 0, 1, 0, 0)" filter="url(#Path_7)">
    <path id="Path_7-2" data-name="Path 7" d="M0,0H23.281V23.281H0Z" transform="translate(9 37.57) rotate(-45)" fill="#fd4d4d"/>
  </g>
  <g transform="matrix(1, 0, 0, 1, 0, 0)" filter="url(#Path_8)">
    <path id="Path_8-2" data-name="Path 8" d="M0,0H23.281V23.281H0Z" transform="translate(9 22.46) rotate(-45)" fill="#fd4d4d"/>
  </g>
</svg>
